<?xml version="1.0" encoding="UTF-8"?>
<svg xmlns="http://www.w3.org/2000/svg" id="Layer_1" data-name="Layer 1" viewBox="0 0 512 512" width="512" height="512"><path d="M256,393.754A112.313,112.313,0,1,0,143.688,281.442,112.439,112.439,0,0,0,256,393.754Zm0-212.625a100.449,100.449,0,0,1,99.853,90.737l-4.019,2.717a32.613,32.613,0,0,1-36.694,0l-6.961-4.706a6,6,0,0,0-6.721,0l-6.96,4.7a32.609,32.609,0,0,1-36.695,0l-6.96-4.7a6,6,0,0,0-6.721,0l-6.953,4.7a32.609,32.609,0,0,1-36.7,0l-6.953-4.7a6,6,0,0,0-6.722,0l-6.95,4.7a32.543,32.543,0,0,1-24.134,5.1A100.425,100.425,0,0,1,256,181.129ZM186.566,284.518l3.589-2.428,3.593,2.43a44.558,44.558,0,0,0,50.142,0l3.592-2.43,3.6,2.433a44.555,44.555,0,0,0,50.137,0l3.6-2.433,3.6,2.434A44.507,44.507,0,0,0,356.2,286a100.312,100.312,0,0,1-199.975,5.885A44.479,44.479,0,0,0,186.566,284.518Z"/><path d="M88,281.442a32.789,32.789,0,0,0,25.565,32.16A146.2,146.2,0,0,0,256,427.442c80.505,0,146-65.495,146-146s-65.495-146-146-146a146.2,146.2,0,0,0-142.435,113.84A32.787,32.787,0,0,0,88,281.442Zm31.119-20.911a6,6,0,0,0,5.36-4.83A134.151,134.151,0,0,1,256,147.442c73.888,0,134,60.112,134,134s-60.112,134-134,134A134.151,134.151,0,0,1,124.479,307.183a6,6,0,0,0-5.36-4.83,20.995,20.995,0,0,1,0-41.822Z"/><path d="M406,10H106A46,46,0,0,0,60,56V455a46,46,0,0,0,46,46H406a46,46,0,0,0,46-46V56A46,46,0,0,0,406,10ZM390,489H122v-2.968A24.055,24.055,0,0,1,146,462H366a24.055,24.055,0,0,1,24,24.032Zm50-33.762A33.836,33.836,0,0,1,406,489h-4v-2.968A36.067,36.067,0,0,0,366,450H146a36.067,36.067,0,0,0-36,36.032V489h-4a33.836,33.836,0,0,1-34-33.762V115H440ZM440,103H72V56.032A34.065,34.065,0,0,1,106,22H406a34.065,34.065,0,0,1,34,34.032Z"/><path d="M190.833,42h-69a19,19,0,1,0,0,38h69a19,19,0,1,0,0-38ZM150,68H121.833a7,7,0,1,1,0-14H150Zm40.833,0H162V54h28.833a7,7,0,1,1,0,14Z"/><path d="M338.625,40.625A20.375,20.375,0,1,0,359,61,20.4,20.4,0,0,0,338.625,40.625Zm0,28.75A8.375,8.375,0,1,1,347,61,8.385,8.385,0,0,1,338.625,69.375Z"/><path d="M388.625,40.625A20.375,20.375,0,1,0,409,61,20.4,20.4,0,0,0,388.625,40.625Zm0,28.75A8.375,8.375,0,1,1,397,61,8.385,8.385,0,0,1,388.625,69.375Z"/><path d="M92,239.913a6,6,0,0,0,6-6V158.106a6,6,0,0,0-12,0v75.807A6,6,0,0,0,92,239.913Z"/><path d="M92,143.726a6,6,0,0,0,6-6v-4.834a6,6,0,0,0-12,0v4.834A6,6,0,0,0,92,143.726Z"/></svg>
